# xmcd CD database file
#
# Track frame offsets:
#	150
#	8113
#	27703
#	54621
#	77292
#	91004
#	110894
#	135663
#	162757
#	192373
#
# Disc length: 2896 seconds
#
# Revision: 0
# Processed by: cddbd v1.5.2PL0 Copyright (c) Steve Scherf et al.
# Submitted via: CDex 1.51
#
DISCID=790b4e0a
DTITLE=Daniel Karlsson Trio - Fuse Number Eleven
DYEAR=2019
DGENRE=Jazz
TTITLE0=Principio
TTITLE1=Fuse Number Eleven
TTITLE2=Liberty
TTITLE3=King of Crap
TTITLE4=Popiyah
TTITLE5=1900
TTITLE6=Metropolis
TTITLE7=Walk the Earth
TTITLE8=Radio Silence
TTITLE9=Colourful Grey (Song for Matera)
EXTD=YEAR: 2019
EXTT0=
EXTT1=
EXTT2=
EXTT3=
EXTT4=
EXTT5=
EXTT6=
EXTT7=
EXTT8=
EXTT9=
PLAYORDER=
